<?xml version="1.0" encoding="UTF-8" standalone="yes"?><svg xmlns="http://www.w3.org/2000/svg" xmlns:xlink="http://www.w3.org/1999/xlink" height="326px" style="width:621px;height:326px;" version="1.1" viewBox="0 0 621 326" width="621px"><defs/><g><text fill="#000000" font-family="sans-serif" font-size="18" lengthAdjust="spacingAndGlyphs" textLength="125" x="256.5" y="16.708">Sample Model</text><text fill="#000000" font-family="sans-serif" font-size="18" lengthAdjust="spacingAndGlyphs" textLength="0" x="322" y="37.6611"/><rect fill="#FFFFFF" height="110.3965" style="stroke: #000000; stroke-width: 1.5;" width="121" x="279.75" y="49.9063"/><text fill="#000000" font-family="sans-serif" font-size="12" font-style="italic" lengthAdjust="spacingAndGlyphs" textLength="50" x="315.25" y="61.0449">«Entity»</text><text fill="#000000" font-family="Verdana" font-size="12" lengthAdjust="spacingAndGlyphs" textLength="43" x="318.75" y="77.9395">Master</text><line style="stroke: #000000; stroke-width: 1.5;" x1="280.75" x2="399.75" y1="82.459" y2="82.459"/><text fill="#000000" font-family="sans-serif" font-size="10" lengthAdjust="spacingAndGlyphs" textLength="25" x="285.75" y="95.7412">PK id</text><text fill="#000000" font-family="sans-serif" font-size="10" lengthAdjust="spacingAndGlyphs" textLength="109" x="285.75" y="107.3818">FK parent_id &gt; Master</text><text fill="#000000" font-family="sans-serif" font-size="10" lengthAdjust="spacingAndGlyphs" textLength="48" x="285.75" y="119.0225">string title</text><text fill="#000000" font-family="sans-serif" font-size="10" lengthAdjust="spacingAndGlyphs" textLength="61" x="285.75" y="130.6631">string field_a</text><text fill="#000000" font-family="sans-serif" font-size="10" lengthAdjust="spacingAndGlyphs" textLength="61" x="285.75" y="142.3037">string field_b</text><text fill="#000000" font-family="sans-serif" font-size="10" lengthAdjust="spacingAndGlyphs" textLength="60" x="285.75" y="153.9443">string field_c</text><rect fill="#FFFFFF" height="87.1152" style="stroke: #000000; stroke-width: 1.5;" width="124" x="278.5" y="238.4063"/><text fill="#000000" font-family="sans-serif" font-size="12" font-style="italic" lengthAdjust="spacingAndGlyphs" textLength="50" x="315.5" y="249.5449">«Entity»</text><text fill="#000000" font-family="Verdana" font-size="12" lengthAdjust="spacingAndGlyphs" textLength="36" x="322.5" y="266.4395">Detail</text><line style="stroke: #000000; stroke-width: 1.5;" x1="279.5" x2="401.5" y1="270.959" y2="270.959"/><text fill="#000000" font-family="sans-serif" font-size="10" lengthAdjust="spacingAndGlyphs" textLength="25" x="284.5" y="284.2412">PK id</text><text fill="#000000" font-family="sans-serif" font-size="10" lengthAdjust="spacingAndGlyphs" textLength="112" x="284.5" y="295.8818">FK master_id &gt; Master</text><text fill="#000000" font-family="sans-serif" font-size="10" lengthAdjust="spacingAndGlyphs" textLength="61" x="284.5" y="307.5225">string field_1</text><text fill="#000000" font-family="sans-serif" font-size="10" lengthAdjust="spacingAndGlyphs" textLength="61" x="284.5" y="319.1631">string field_2</text><rect fill="#FFFFFF" height="75.4746" style="stroke: #000000; stroke-width: 1.5;" width="94" x="6" y="67.4063"/><text fill="#000000" font-family="sans-serif" font-size="12" font-style="italic" lengthAdjust="spacingAndGlyphs" textLength="50" x="28" y="78.5449">«Entity»</text><text fill="#000000" font-family="Verdana" font-size="12" lengthAdjust="spacingAndGlyphs" textLength="30" x="38" y="95.4395">Tags</text><line style="stroke: #000000; stroke-width: 1.5;" x1="7" x2="99" y1="99.959" y2="99.959"/><text fill="#000000" font-family="sans-serif" font-size="10" lengthAdjust="spacingAndGlyphs" textLength="25" x="12" y="113.2412">PK id</text><text fill="#000000" font-family="sans-serif" font-size="10" lengthAdjust="spacingAndGlyphs" textLength="46" x="12" y="124.8818">string tag</text><text fill="#000000" font-family="sans-serif" font-size="10" lengthAdjust="spacingAndGlyphs" textLength="82" x="12" y="136.5225">string description</text><rect fill="#FFFFFF" height="63.834" style="stroke: #000000; stroke-width: 1.5;" width="126" x="494" y="249.9063"/><text fill="#000000" font-family="sans-serif" font-size="12" font-style="italic" lengthAdjust="spacingAndGlyphs" textLength="50" x="532" y="261.0449">«Entity»</text><text fill="#000000" font-family="Verdana" font-size="12" lengthAdjust="spacingAndGlyphs" textLength="33" x="540.5" y="277.9395">Extra</text><line style="stroke: #000000; stroke-width: 1.5;" x1="495" x2="619" y1="282.459" y2="282.459"/><text fill="#000000" font-family="sans-serif" font-size="10" lengthAdjust="spacingAndGlyphs" textLength="114" x="500" y="295.7412">PK/FK detail_id &gt; Detail</text><text fill="#000000" font-family="sans-serif" font-size="10" lengthAdjust="spacingAndGlyphs" textLength="48" x="500" y="307.3818">string info</text><rect fill="#FFFFFF" height="63.834" style="stroke: #000000; stroke-width: 1.5;" width="141" x="101.75" y="249.9063"/><text fill="#000000" font-family="sans-serif" font-size="12" font-style="italic" lengthAdjust="spacingAndGlyphs" textLength="84" x="130.25" y="261.0449">«Association»</text><text fill="#000000" font-family="Verdana" font-size="12" lengthAdjust="spacingAndGlyphs" textLength="57" x="143.75" y="277.9395">Linktable</text><line style="stroke: #000000; stroke-width: 1.5;" x1="102.75" x2="241.75" y1="282.459" y2="282.459"/><text fill="#000000" font-family="sans-serif" font-size="10" lengthAdjust="spacingAndGlyphs" textLength="129" x="107.75" y="295.7412">PK/FK master_id &gt; Master</text><text fill="#000000" font-family="sans-serif" font-size="10" lengthAdjust="spacingAndGlyphs" textLength="98" x="107.75" y="307.3818">PK/FK tag_id &gt; Tags</text><ellipse cx="172" cy="104.9063" fill="#000000" rx="2" ry="2" style="stroke: none; stroke-width: 1.0;"/><path d="M413.497,88.4183 C426.189,90.6453 435,96.1413 435,104.9063 C435,113.6712 426.189,119.1673 413.497,121.3943 " fill="none" style="stroke: #000000; stroke-width: 1.0;"/><polygon fill="#000000" points="400.3,122.5273,409.609,125.7432,405.2817,122.0998,408.9251,117.7725,400.3,122.5273" style="stroke: #000000; stroke-width: 1.0;"/><line style="stroke: #000000; stroke-width: 1.0;" x1="405.2817" x2="413.252" y1="122.0998" y2="121.4148"/><polygon fill="none" points="400.3,87.2852,405.9361,91.7836,412.2561,88.3111,406.62,83.8128,400.3,87.2852" style="stroke: #000000; stroke-width: 1.0;"/><text fill="#000000" font-family="Verdana" font-size="12" lengthAdjust="spacingAndGlyphs" textLength="61" x="441" y="109.4707">parent_id</text><text fill="#000000" font-family="Verdana" font-size="12" lengthAdjust="spacingAndGlyphs" textLength="8" x="408.9067" y="80.9195">1</text><text fill="#000000" font-family="Verdana" font-size="12" lengthAdjust="spacingAndGlyphs" textLength="24" x="408.6308" y="120.715">0..*</text><path d="M105.561,104.9063 C126.962,104.9063 148.362,104.9063 169.763,104.9063 " fill="none" style="stroke: #000000; stroke-width: 1.0;"/><polygon fill="#000000" points="100.4141,104.9063,109.4141,108.9063,105.4141,104.9063,109.4141,100.9063,100.4141,104.9063" style="stroke: #000000; stroke-width: 1.0;"/><text fill="#000000" font-family="Verdana" font-size="12" lengthAdjust="spacingAndGlyphs" textLength="24" x="108.0265" y="100.9527">0..*</text><path d="M174.297,104.9063 C207.577,104.9063 240.858,104.9063 274.138,104.9063 " fill="none" style="stroke: #000000; stroke-width: 1.0;"/><polygon fill="#000000" points="279.48,104.9063,270.48,100.9063,274.48,104.9063,270.48,108.9063,279.48,104.9063" style="stroke: #000000; stroke-width: 1.0;"/><text fill="#000000" font-family="Verdana" font-size="12" lengthAdjust="spacingAndGlyphs" textLength="24" x="247.6793" y="101.2418">0..*</text><path d="M172,107.0243 C172,116.7683 172,188.0973 172,236.3175 " fill="none" style="stroke: #000000; stroke-width: 1.0; stroke-dasharray: 7.0,7.0;"/><polygon fill="none" points="172,249.5378,176,243.5378,172,237.5378,168,243.5378,172,249.5378" style="stroke: #000000; stroke-width: 1.0;"/><path d="M340,173.5773 C340,190.5583 340,208.5913 340,224.9313 " fill="none" style="stroke: #000000; stroke-width: 1.0;"/><polygon fill="none" points="340,238.1979,344,232.1979,340,226.1979,336,232.1979,340,238.1979" style="stroke: #000000; stroke-width: 1.0;"/><polygon fill="#000000" points="340,160.3183,336,169.3183,340,165.3183,344,169.3183,340,160.3183" style="stroke: #000000; stroke-width: 1.0;"/><line style="stroke: #000000; stroke-width: 1.0;" x1="340" x2="340" y1="165.3183" y2="173.3183"/><text fill="#000000" font-family="Verdana" font-size="12" lengthAdjust="spacingAndGlyphs" textLength="63" x="341" y="203.4707">master_id</text><text fill="#000000" font-family="Verdana" font-size="12" lengthAdjust="spacingAndGlyphs" textLength="24" x="313.3023" y="180.3913">0..*</text><text fill="#000000" font-family="Verdana" font-size="12" lengthAdjust="spacingAndGlyphs" textLength="8" x="330.2266" y="228.0242">1</text><path d="M414.763,281.9063 C436.064,281.9063 459.292,281.9063 480.684,281.9063 " fill="none" style="stroke: #000000; stroke-width: 1.0;"/><polygon fill="none" points="493.733,281.9063,487.733,277.9063,481.733,281.9063,487.733,285.9063,493.733,281.9063" style="stroke: #000000; stroke-width: 1.0;"/><polygon fill="#000000" points="401.603,281.9063,410.603,285.9063,406.603,281.9063,410.603,277.9063,401.603,281.9063" style="stroke: #000000; stroke-width: 1.0;"/><line style="stroke: #000000; stroke-width: 1.0;" x1="406.603" x2="414.603" y1="281.9063" y2="281.9062"/><text fill="#000000" font-family="Verdana" font-size="12" lengthAdjust="spacingAndGlyphs" textLength="54" x="420" y="274.9707">detail_id</text><text fill="#000000" font-family="Verdana" font-size="12" lengthAdjust="spacingAndGlyphs" textLength="24" x="410.5124" y="294.8524">0..1</text><text fill="#000000" font-family="Verdana" font-size="12" lengthAdjust="spacingAndGlyphs" textLength="8" x="478.013" y="278.2201">1</text></g></svg>